<?xml version="1.0" standalone="no"?>
<!DOCTYPE svg PUBLIC "-//W3C//DTD SVG 20010904//EN"
 "http://www.w3.org/TR/2001/REC-SVG-20010904/DTD/svg10.dtd">
<svg version="1.0" xmlns="http://www.w3.org/2000/svg"
 width="300.000000pt" height="104.000000pt" viewBox="0 0 300.000000 104.000000"
 preserveAspectRatio="xMidYMid meet">
<metadata>
Created by potrace 1.10, written by Peter Selinger 2001-2011
</metadata>
<g transform="translate(0.000000,104.000000) scale(0.100000,-0.100000)"
fill="#fefbfb" stroke="none">
<path d="M525 989 c-197 -23 -360 -168 -419 -371 -16 -57 -21 -207 -8 -240 4
-10 7 31 7 90 0 59 3 118 7 131 22 74 34 101 67 151 40 61 104 130 120 130 6
0 11 4 11 8 0 10 114 67 155 77 76 19 185 21 248 4 56 -15 150 -57 159 -72 4
-6 10 -9 13 -5 11 11 -65 54 -135 76 -76 24 -142 30 -225 21z"/>
<path d="M513 914 c-31 -24 -84 -112 -82 -137 0 -7 11 11 24 39 13 28 42 67
65 87 46 42 41 50 -7 11z"/>
<path d="M574 845 c0 -49 1 -71 3 -48 2 23 2 64 0 90 -2 26 -3 8 -3 -42z"/>
<path d="M677 899 c17 -19 43 -54 57 -79 28 -50 35 -48 10 3 -23 43 -50 78
-77 95 -14 10 -11 3 10 -19z"/>
<path d="M613 855 c0 -38 2 -53 4 -32 2 20 2 52 0 70 -2 17 -4 1 -4 -38z"/>
<path d="M365 891 c-40 -24 -135 -110 -135 -122 0 -6 21 11 47 37 26 25 70 59
98 75 27 16 43 29 35 29 -8 0 -28 -8 -45 -19z"/>
<path d="M780 906 c16 -15 110 -73 110 -68 0 9 -69 56 -95 66 -11 4 -17 5 -15
2z"/>
<path d="M420 868 c-11 -18 -27 -52 -36 -75 l-16 -42 -62 -4 -61 -3 62 -2 61
-2 40 80 c41 83 47 104 12 48z"/>
<path d="M770 850 c11 -22 23 -40 25 -40 3 0 -4 18 -15 40 -11 22 -23 40 -25
40 -3 0 4 -18 15 -40z"/>
<path d="M911 873 c6 -10 26 -29 43 -42 26 -21 25 -18 -9 17 -42 45 -52 52
-34 25z"/>
<path d="M915 810 c10 -11 20 -20 23 -20 3 0 -3 9 -13 20 -10 11 -20 20 -23
20 -3 0 3 -9 13 -20z"/>
<path d="M459 749 c-14 -3 2 -6 39 -7 34 -1 62 0 62 2 0 7 -78 11 -101 5z"/>
<path d="M658 743 c17 -2 47 -2 65 0 17 2 3 4 -33 4 -36 0 -50 -2 -32 -4z"/>
<path d="M450 709 c-37 -5 -32 -6 33 -7 42 -1 77 0 77 2 0 8 -66 11 -110 5z"/>
<path d="M169 664 c-11 -26 -22 -68 -24 -93 l-4 -46 9 44 c5 25 18 64 27 88
l18 43 79 0 c76 0 78 -1 73 -22 -11 -43 -18 -155 -8 -126 5 14 10 55 12 90 l4
63 -83 3 -82 3 -21 -47z"/>
<path d="M663 703 c15 -2 39 -2 55 0 15 2 2 4 -28 4 -30 0 -43 -2 -27 -4z"/>
<path d="M898 703 c7 -3 16 -2 19 1 4 3 -2 6 -13 5 -11 0 -14 -3 -6 -6z"/>
<path d="M572 670 c0 -14 2 -19 5 -12 2 6 2 18 0 25 -3 6 -5 1 -5 -13z"/>
<path d="M612 665 c0 -16 2 -22 5 -12 2 9 2 23 0 30 -3 6 -5 -1 -5 -18z"/>
<path d="M385 615 c-4 -31 -5 -58 -3 -61 3 -2 8 21 12 52 4 31 5 59 2 61 -2 3
-8 -21 -11 -52z"/>
<path d="M842 640 c0 -14 2 -19 5 -12 2 6 2 18 0 25 -3 6 -5 1 -5 -13z"/>
<path d="M572 610 c0 -19 2 -27 5 -17 2 9 2 25 0 35 -3 9 -5 1 -5 -18z"/>
<path d="M612 605 c0 -16 2 -22 5 -12 2 9 2 23 0 30 -3 6 -5 -1 -5 -18z"/>
<path d="M850 567 c4 -41 5 -41 8 -8 2 18 0 37 -5 42 -5 5 -6 -11 -3 -34z"/>
<path d="M571 554 c0 -11 3 -14 6 -6 3 7 2 16 -1 19 -3 4 -6 -2 -5 -13z"/>
<path d="M1091 534 c0 -11 3 -14 6 -6 3 7 2 16 -1 19 -3 4 -6 -2 -5 -13z"/>
<path d="M193 503 c26 -2 67 -2 90 0 23 2 2 3 -48 3 -50 0 -68 -1 -42 -3z"/>
<path d="M433 503 c20 -2 54 -2 75 0 20 2 3 4 -38 4 -41 0 -58 -2 -37 -4z"/>
<path d="M197 463 c24 -2 62 -2 85 0 24 2 5 4 -42 4 -47 0 -66 -2 -43 -4z"/>
<path d="M413 463 c9 -2 23 -2 30 0 6 3 -1 5 -18 5 -16 0 -22 -2 -12 -5z"/>
<path d="M483 463 c9 -2 23 -2 30 0 6 3 -1 5 -18 5 -16 0 -22 -2 -12 -5z"/>
<path d="M538 463 c7 -3 16 -2 19 1 4 3 -2 6 -13 5 -11 0 -14 -3 -6 -6z"/>
<path d="M633 463 c9 -2 25 -2 35 0 9 3 1 5 -18 5 -19 0 -27 -2 -17 -5z"/>
<path d="M728 463 c12 -2 30 -2 40 0 9 3 -1 5 -23 4 -22 0 -30 -2 -17 -4z"/>
<path d="M333 410 c0 -25 2 -35 4 -22 2 12 2 32 0 45 -2 12 -4 2 -4 -23z"/>
<path d="M143 405 c1 -40 34 -131 44 -122 2 3 -1 16 -8 29 -7 12 -18 48 -25
78 -12 51 -12 52 -11 15z"/>
<path d="M382 390 c0 -19 2 -27 5 -17 2 9 2 25 0 35 -3 9 -5 1 -5 -18z"/>
<path d="M801 394 c0 -11 3 -14 6 -6 3 7 2 16 -1 19 -3 4 -6 -2 -5 -13z"/>
<path d="M460 258 l0 -138 105 0 105 0 0 26 0 26 -80 -4 -80 -3 0 37 0 38 70
0 c69 0 70 1 70 26 0 25 -1 25 -67 23 l-68 -3 -3 32 -3 32 75 0 c68 0 76 2 76
19 0 18 -9 20 -100 23 l-100 3 0 -137z m27 50 c-3 -7 -5 -2 -5 12 0 14 2 19 5
13 2 -7 2 -19 0 -25z m19 -57 c-12 -19 -24 -12 -22 14 1 20 3 22 15 11 7 -8
10 -19 7 -25z m-12 -81 c4 -25 3 -31 -4 -20 -5 8 -10 26 -10 39 0 32 6 24 14
-19z"/>
<path d="M2150 391 c0 -3 14 -66 31 -138 l31 -133 32 0 31 0 23 98 c12 53 20
107 16 118 -7 25 14 43 27 23 14 -23 11 -43 -5 -30 -10 9 -9 -5 5 -56 10 -38
23 -87 29 -110 10 -38 14 -43 40 -43 24 0 31 5 36 28 4 15 19 75 33 135 l27
107 -27 0 c-18 0 -29 -6 -32 -17 -19 -68 -27 -125 -25 -168 2 -39 0 -50 -12
-50 -12 0 -15 14 -16 60 -1 33 -8 85 -16 115 -14 52 -17 55 -50 58 l-35 3 -18
-73 c-29 -121 -30 -121 -50 -21 -18 87 -20 92 -47 95 -15 3 -28 2 -28 -1z
m109 -196 c7 4 8 -2 2 -16 -9 -27 -31 -37 -31 -16 0 9 -3 24 -7 34 -6 16 -5
16 10 5 9 -8 21 -11 26 -7z"/>
<path d="M2740 255 l0 -135 25 0 c17 0 25 6 25 17 0 15 2 15 19 -1 12 -11 31
-16 52 -14 96 9 95 187 -1 196 -18 2 -37 -1 -43 -7 -22 -22 -30 -10 -25 34 5
44 5 45 -23 45 l-29 0 0 -135z m37 13 c-3 -7 -5 -2 -5 12 0 14 2 19 5 13 2 -7
2 -19 0 -25z m92 -2 c17 -21 10 -87 -11 -100 -38 -23 -78 37 -59 87 12 30 50
37 70 13z m-84 -95 c3 -5 1 -12 -5 -16 -5 -3 -10 1 -10 9 0 18 6 21 15 7z"/>
<path d="M392 330 c0 -14 2 -19 5 -12 2 6 2 18 0 25 -3 6 -5 1 -5 -13z"/>
<path d="M341 324 c0 -11 3 -14 6 -6 3 7 2 16 -1 19 -3 4 -6 -2 -5 -13z"/>
<path d="M121 310 c-1 -27 70 -137 118 -182 l46 -43 -41 45 c-42 47 -96 127
-113 170 -5 14 -10 18 -10 10z"/>
<path d="M710 220 c0 -100 0 -100 25 -100 24 0 25 2 25 63 0 69 15 101 46 95
16 -3 19 -13 22 -81 3 -74 4 -77 27 -77 24 0 25 3 25 63 0 69 15 101 46 95 16
-3 19 -13 22 -81 3 -74 4 -77 27 -77 25 0 25 1 25 83 0 69 -3 87 -18 100 -23
21 -70 22 -92 2 -15 -14 -18 -14 -30 0 -16 19 -59 19 -88 0 -20 -14 -21 -14
-16 0 5 11 -1 15 -20 15 l-26 0 0 -100z m149 37 c0 -21 -1 -21 -9 -2 -12 28
-12 37 0 30 6 -3 10 -16 9 -28z"/>
<path d="M1050 183 l0 -138 25 0 c24 0 25 3 25 53 0 49 1 52 16 38 23 -24 71
-20 99 9 20 19 25 34 25 75 0 41 -5 56 -25 75 -28 28 -75 33 -99 10 -8 -8 -17
-15 -20 -15 -3 0 -3 7 0 15 5 11 -1 15 -20 15 l-26 0 0 -137z m134 65 c14 -40
-3 -82 -34 -86 -42 -6 -65 51 -39 99 16 30 61 22 73 -13z m-84 -82 c0 -3 -4
-8 -10 -11 -5 -3 -10 -1 -10 4 0 6 5 11 10 11 6 0 10 -2 10 -4z"/>
<path d="M1314 305 c-30 -21 -47 -68 -40 -109 19 -98 161 -104 197 -8 32 85
-82 170 -157 117z m96 -44 c14 -26 13 -74 -2 -89 -7 -7 -21 -12 -33 -12 -31 0
-45 19 -45 60 0 20 5 41 12 48 18 18 56 14 68 -7z"/>
<path d="M1492 308 c3 -7 18 -52 34 -100 26 -81 30 -88 54 -88 24 0 27 5 40
65 13 60 30 79 30 33 0 -11 5 -38 12 -60 10 -33 15 -39 37 -36 22 3 28 14 56
101 l31 97 -27 0 c-21 0 -28 -6 -33 -27 -4 -16 -12 -46 -18 -68 l-11 -40 -16
65 c-15 57 -20 65 -43 68 -23 3 -27 -2 -37 -42 -6 -25 -11 -54 -11 -65 0 -42
-17 -19 -31 42 -13 57 -17 62 -43 65 -21 3 -27 0 -24 -10z m158 -39 c0 -5 -4
-9 -8 -9 -5 0 -9 7 -9 15 0 8 4 12 9 9 4 -3 8 -9 8 -15z m-66 -110 c-6 -11
-24 -2 -24 11 0 5 7 7 15 4 8 -4 12 -10 9 -15z m126 10 c0 -15 -18 -19 -23 -6
-3 8 1 14 9 14 8 0 14 -4 14 -8z"/>
<path d="M1825 288 c-24 -28 -27 -39 -22 -82 6 -62 31 -86 91 -86 31 0 48 6
64 23 12 13 22 26 22 30 0 13 -52 7 -67 -8 -13 -14 -18 -14 -37 -2 -11 8 -22
21 -24 29 -2 11 11 13 63 12 63 -3 65 -2 65 22 0 32 -25 80 -45 88 -42 16 -83
6 -110 -26z m99 -24 c10 -27 7 -29 -34 -29 -40 0 -50 11 -28 33 17 17 55 15
62 -4z"/>
<path d="M2020 220 l0 -100 28 0 c27 0 27 1 27 64 0 70 16 100 46 91 11 -4 19
-2 19 4 0 5 3 16 6 25 9 23 -52 22 -65 -1 -10 -17 -10 -17 -11 0 0 11 -8 17
-25 17 -25 0 -25 0 -25 -100z"/>
<path d="M2545 294 c-35 -38 -35 -115 0 -149 33 -34 102 -35 133 -2 29 31 28
37 -8 37 -16 0 -30 -4 -30 -9 0 -18 -33 -21 -51 -5 -34 31 -23 40 46 38 l65
-3 0 29 c0 16 -11 42 -26 59 -35 42 -93 44 -129 5z m93 -26 c22 -22 12 -33
-28 -33 -22 0 -40 4 -40 10 0 16 22 35 40 35 9 0 21 -5 28 -12z m-78 -47 c0
-6 -4 -13 -10 -16 -5 -3 -10 1 -10 9 0 9 5 16 10 16 6 0 10 -4 10 -9z"/>
<path d="M233 263 c20 -2 54 -2 75 0 20 2 3 4 -38 4 -41 0 -58 -2 -37 -4z"/>
<path d="M278 223 c6 -2 18 -2 25 0 6 3 1 5 -13 5 -14 0 -19 -2 -12 -5z"/>
<path d="M245 186 c10 -14 19 -26 22 -26 7 0 -17 39 -28 46 -6 3 -3 -5 6 -20z"/>
<path d="M2405 200 c-3 -5 -1 -10 4 -10 6 0 11 5 11 10 0 6 -2 10 -4 10 -3 0
-8 -4 -11 -10z"/>
<path d="M280 146 c0 -2 7 -7 16 -10 8 -3 12 -2 9 4 -6 10 -25 14 -25 6z"/>
<path d="M367 89 c7 -7 15 -10 18 -7 3 3 -2 9 -12 12 -14 6 -15 5 -6 -5z"/>
</g>
</svg>
