 <svg  version="1.0" xmlns="http://www.w3.org/2000/svg"  width="300.000000pt" height="300.000000pt" viewBox="0 0 300.000000 300.000000"  preserveAspectRatio="xMidYMid meet">  <g transform="translate(0.000000,300.000000) scale(0.100000,-0.100000)" fill="#ffffff" stroke="none"> <path d="M499 2241 c-243 -78 -352 -366 -222 -590 26 -44 109 -131 126 -131 4 0 -6 12 -25 28 -71 58 -111 121 -134 212 -20 79 -9 193 27 267 30 64 125 155 196 188 48 23 73 28 145 29 47 0 84 4 81 9 -8 14 -138 6 -194 -12z"/> <path d="M764 2225 c32 -13 76 -38 97 -55 22 -17 39 -27 39 -23 0 20 -148 103 -182 103 -7 0 14 -11 46 -25z"/> <path d="M558 2201 c-22 -18 -86 -121 -74 -121 3 0 13 14 21 31 9 16 32 48 52 70 39 43 39 50 1 20z"/> <path d="M602 2143 l-2 -72 -52 -4 -53 -3 53 -2 c62 -2 64 1 59 89 l-3 64 -2 -72z"/> <path d="M691 2185 c15 -16 36 -48 47 -70 24 -46 28 -43 8 6 -8 19 -29 48 -48 64 l-33 30 26 -30z"/> <path d="M445 2183 c-39 -21 -86 -60 -104 -87 -8 -12 0 -8 20 11 19 17 56 45 83 62 52 32 53 42 1 14z"/> <path d="M482 2158 c-11 -18 -24 -45 -27 -60 -7 -26 -10 -28 -63 -28 -61 0 -65 -11 -5 -14 54 -3 61 1 84 53 12 25 26 54 31 64 15 30 1 19 -20 -15z"/> <path d="M781 2187 c2 -2 21 -15 42 -30 20 -16 37 -24 37 -20 0 9 -62 53 -75 53 -4 0 -6 -1 -4 -3z"/> <path d="M763 2141 c12 -22 23 -38 25 -36 5 5 -26 63 -37 69 -5 4 0 -12 12 -33z"/> <path d="M870 2122 c0 -12 19 -26 26 -19 2 2 -2 10 -11 17 -9 8 -15 8 -15 2z"/> <path d="M925 2110 c10 -11 20 -20 22 -20 2 0 -2 9 -9 20 -7 11 -17 20 -22 20 -5 0 -1 -9 9 -20z"/> <path d="M668 2063 c18 -2 45 -2 60 0 15 2 0 4 -33 4 -33 0 -45 -2 -27 -4z"/> <path d="M833 2063 c15 -2 37 -2 50 0 12 2 0 4 -28 4 -27 0 -38 -2 -22 -4z"/> <path d="M340 2040 c-42 -5 -45 -7 -62 -50 -9 -25 -17 -58 -16 -75 1 -26 1 -27 5 -5 2 14 11 46 20 72 l17 47 60 3 c34 2 52 5 41 8 -11 3 -40 3 -65 0z"/> <path d="M518 2033 c18 -2 45 -2 60 0 15 2 0 4 -33 4 -33 0 -45 -2 -27 -4z"/> <path d="M683 2033 c15 -2 37 -2 50 0 12 2 0 4 -28 4 -27 0 -38 -2 -22 -4z"/> <path d="M863 2033 c9 -2 23 -2 30 0 6 3 -1 5 -18 5 -16 0 -22 -2 -12 -5z"/> <path d="M464 2016 c-3 -8 -4 -23 -2 -33 3 -11 6 -6 9 15 6 34 2 42 -7 18z"/> <path d="M426 1999 c-14 -66 -16 -99 -7 -99 5 0 11 26 13 58 4 62 2 78 -6 41z"/> <path d="M603 1950 c0 -41 2 -58 4 -37 2 20 2 54 0 75 -2 20 -4 3 -4 -38z"/> <path d="M782 1980 c0 -14 2 -19 5 -12 2 6 2 18 0 25 -3 6 -5 1 -5 -13z"/> <path d="M452 1935 c0 -16 2 -22 5 -12 2 9 2 23 0 30 -3 6 -5 -1 -5 -18z"/> <path d="M821 1934 c0 -11 3 -14 6 -6 3 7 2 16 -1 19 -3 4 -6 -2 -5 -13z"/> <path d="M269 1871 c15 -10 108 -7 119 3 3 3 -26 6 -64 6 -46 0 -64 -3 -55 -9z"/> <path d="M498 1873 c17 -2 47 -2 65 0 17 2 3 4 -33 4 -36 0 -50 -2 -32 -4z"/> <path d="M283 1844 c9 -9 96 -11 91 -2 -3 4 -26 8 -51 8 -26 0 -44 -3 -40 -6z"/> <path d="M261 1798 c-1 -27 28 -113 36 -105 2 2 -2 17 -8 33 -7 16 -15 45 -19 64 -7 31 -8 32 -9 8z"/> <path d="M452 1780 c0 -19 2 -27 5 -17 2 9 2 25 0 35 -3 9 -5 1 -5 -18z"/> <path d="M421 1753 c-1 -23 3 -44 7 -47 4 -2 6 12 4 32 -5 56 -10 62 -11 15z"/> <path d="M1860 1783 c0 -3 9 -39 19 -81 10 -43 22 -89 25 -104 5 -21 12 -28 31 -28 20 0 26 7 34 38 5 20 15 57 22 82 l11 45 21 -82 c17 -70 23 -82 43 -86 26 -5 22 -13 58 129 20 79 20 84 -4 84 -12 0 -22 -8 -25 -22 -20 -90 -25 -121 -19 -130 4 -6 3 -8 -3 -5 -6 4 -13 24 -17 44 -15 92 -25 113 -55 113 -27 0 -29 -4 -41 -62 -19 -94 -25 -96 -39 -14 -12 65 -16 75 -37 79 -13 2 -24 2 -24 0z"/> <path d="M517 1674 l2 -106 80 -1 c71 -2 81 0 81 16 0 14 -10 17 -60 17 -60 0 -60 0 -60 30 0 30 1 30 55 30 48 0 55 2 55 20 0 18 -7 20 -55 20 -52 0 -55 1 -55 25 0 24 3 25 60 25 47 0 60 3 60 15 0 12 -16 15 -82 15 l-83 0 2 -106z"/> <path d="M2330 1676 c0 -95 2 -104 20 -109 14 -3 20 0 20 10 0 14 3 14 20 -2 29 -26 68 -13 86 31 29 70 -16 141 -72 115 -35 -16 -37 -15 -32 24 4 31 1 35 -19 35 -23 0 -23 -2 -23 -104z m98 12 c17 -17 15 -73 -4 -89 -14 -11 -19 -10 -35 10 -23 28 -24 40 -3 69 17 25 25 27 42 10z"/> <path d="M462 1720 c0 -14 2 -19 5 -12 2 6 2 18 0 25 -3 6 -5 1 -5 -13z"/> <path d="M772 1714 c-12 -8 -22 -10 -22 -5 0 6 -8 11 -17 11 -16 0 -18 -10 -17 -77 1 -43 4 -77 8 -75 3 1 13 2 21 2 11 0 15 13 15 54 0 35 5 58 15 66 24 20 35 1 35 -63 0 -56 2 -63 20 -63 18 0 20 7 20 57 0 37 5 61 15 69 24 20 35 2 35 -61 0 -56 1 -59 25 -59 23 0 25 3 25 49 0 90 -34 130 -83 98 -19 -12 -24 -12 -35 -1 -17 18 -32 18 -60 -2z"/> <path d="M1042 1714 c-12 -8 -22 -10 -22 -5 0 6 -8 11 -17 11 -16 0 -18 -12 -18 -105 0 -104 0 -105 24 -105 22 0 23 3 18 41 -5 38 -4 40 12 25 39 -35 89 -4 98 61 5 35 2 45 -20 67 -30 30 -44 32 -75 10z m48 -43 c22 -43 -4 -90 -41 -71 -19 11 -28 68 -12 83 13 14 43 7 53 -12z"/> <path d="M1214 1720 c-29 -11 -54 -49 -54 -78 0 -31 52 -82 84 -82 41 0 78 39 78 84 0 60 -55 98 -108 76z m61 -75 c0 -37 -2 -40 -29 -40 -33 0 -48 27 -35 63 7 18 15 23 36 20 25 -3 28 -7 28 -43z"/> <path d="M1340 1723 c0 -3 10 -38 22 -79 18 -64 24 -74 44 -74 19 0 24 7 30 38 8 43 23 77 24 52 0 -8 5 -32 11 -53 8 -31 14 -38 31 -35 17 2 27 19 44 73 28 86 28 81 4 81 -20 0 -40 -44 -40 -88 0 -39 -18 -15 -24 32 -6 44 -10 50 -30 50 -21 0 -26 -8 -37 -52 l-12 -53 -15 52 c-9 34 -20 53 -33 56 -10 3 -19 3 -19 0z"/> <path d="M1623 1718 c-48 -23 -54 -112 -10 -143 31 -22 62 -18 94 10 l28 24 -25 1 c-15 0 -31 -5 -36 -10 -13 -13 -40 -4 -48 16 -4 11 6 14 49 14 43 0 55 3 55 15 0 29 -29 72 -52 79 -28 7 -28 7 -55 -6z m67 -48 c0 -6 -16 -10 -35 -10 -40 0 -41 2 -19 24 12 12 20 13 35 6 10 -6 19 -15 19 -20z"/> <path d="M1816 1721 c-3 -4 -17 -6 -31 -3 l-25 4 0 -79 c0 -72 2 -79 20 -79 17 0 20 7 20 51 0 57 11 81 33 72 16 -6 31 18 21 34 -7 11 -31 12 -38 0z"/> <path d="M2192 1718 c-52 -26 -49 -128 3 -148 39 -15 51 -13 82 15 l28 24 -25 1 c-15 0 -31 -5 -36 -10 -13 -13 -40 -4 -48 16 -4 11 6 14 49 14 51 0 55 2 55 24 0 51 -61 87 -108 64z m58 -33 c17 -21 9 -27 -31 -23 -31 3 -32 4 -15 21 21 21 30 21 46 2z"/> <path d="M355 1680 c27 -12 43 -12 25 0 -8 5 -22 9 -30 9 -10 0 -8 -3 5 -9z"/> <path d="M348 1614 c9 -18 62 -61 62 -51 0 1 -16 18 -37 37 -23 22 -32 27 -25 14z"/> </g> </svg> 